<?xml version="1.0" standalone="no"?>
<!DOCTYPE svg PUBLIC "-//W3C//DTD SVG 20010904//EN"
 "http://www.w3.org/TR/2001/REC-SVG-20010904/DTD/svg10.dtd">
<svg version="1.0" xmlns="http://www.w3.org/2000/svg"
 width="700.000000pt" height="700.000000pt" viewBox="0 0 700.000000 700.000000"
 preserveAspectRatio="xMidYMid meet">
<metadata>
Created by potrace 1.14, written by Peter Selinger 2001-2017
</metadata>
<g transform="translate(0.000000,700.000000) scale(0.100000,-0.100000)"
fill="#000000" stroke="none">
<path d="M3245 6334 c-773 -50 -1394 -260 -1820 -616 -461 -386 -706 -878
-755 -1518 -13 -177 -13 -1237 0 -1411 29 -367 105 -653 246 -929 80 -156 172
-285 291 -410 166 -175 356 -310 608 -435 347 -171 688 -265 1160 -322 187
-22 813 -25 995 -5 492 54 835 146 1185 317 569 278 915 679 1079 1250 81 284
96 459 96 1120 0 493 -2 533 -19 571 -22 49 -90 109 -133 118 -17 3 -535 6
-1153 6 l-1122 0 -44 -23 c-24 -13 -57 -43 -74 -66 l-30 -43 -3 -496 c-2 -330
0 -509 8 -533 13 -48 79 -112 128 -127 25 -8 125 -12 282 -12 l243 0 -6 -57
c-14 -139 -146 -309 -304 -391 -155 -81 -331 -115 -593 -115 -110 0 -180 5
-240 18 -293 60 -484 219 -556 460 -16 55 -18 125 -21 805 -3 529 -1 765 8
813 33 199 202 369 444 446 226 73 526 68 723 -12 108 -43 174 -89 272 -188
52 -53 111 -105 130 -115 34 -18 72 -19 965 -19 l930 0 33 23 c126 90 83 337
-118 676 -171 286 -371 495 -665 695 -444 302 -882 454 -1475 511 -111 11
-593 20 -695 14z"/>
</g>
</svg>
